<svg xmlns="http://www.w3.org/2000/svg" width="1600" height="900" viewBox="0 0 1600 900"><defs><marker id="arrow" markerWidth="10" markerHeight="10" refX="9" refY="3" orient="auto" markerUnits="strokeWidth"><path d="M0,0 L0,6 L9,3 z" fill="#605E5C"/></marker></defs><rect width="1600" height="900" fill="#FFFFFF"/><text x="60" y="58" font-family="Segoe UI, Arial" font-size="34" font-weight="700" fill="#242424">Logical Architecture and Data Flows</text><text x="60" y="92" font-family="Segoe UI, Arial" font-size="18" fill="#605E5C">Count path, member paging, and automatic shortcut provisioning</text><rect x="40" y="120" width="420" height="700" rx="18" fill="none" stroke="#0078D4" stroke-width="3" stroke-dasharray="10 7"/><text x="58" y="150" font-family="Segoe UI, Arial" font-size="18" font-weight="700" fill="#242424">Client and Dataverse</text><rect x="500" y="120" width="520" height="700" rx="18" fill="none" stroke="#5C2D91" stroke-width="3" stroke-dasharray="10 7"/><text x="518" y="150" font-family="Segoe UI, Arial" font-size="18" font-weight="700" fill="#242424">Azure API / Segment Engine</text><rect x="1060" y="120" width="500" height="700" rx="18" fill="none" stroke="#107C10" stroke-width="3" stroke-dasharray="10 7"/><text x="1078" y="150" font-family="Segoe UI, Arial" font-size="18" font-weight="700" fill="#242424">Fabric Serving Layer</text><path d="M 250 280 L 250 350" fill="none" stroke="#605E5C" stroke-width="3" marker-end="url(#arrow)"/><rect x="158" y="285" width="184" height="28" rx="6" fill="#FFFFFF" opacity="0.92"/><text x="250" y="305" text-anchor="middle" font-family="Segoe UI, Arial" font-size="15" fill="#242424">Segment ID</text><path d="M 420 410 L 540 220" fill="none" stroke="#605E5C" stroke-width="3" marker-end="url(#arrow)"/><rect x="388" y="285" width="184" height="28" rx="6" fill="#FFFFFF" opacity="0.92"/><text x="480" y="305" text-anchor="middle" font-family="Segoe UI, Arial" font-size="15" fill="#242424">Table list</text><path d="M 420 420 L 540 410" fill="none" stroke="#605E5C" stroke-width="3" marker-end="url(#arrow)"/><rect x="388" y="385" width="184" height="28" rx="6" fill="#FFFFFF" opacity="0.92"/><text x="480" y="405" text-anchor="middle" font-family="Segoe UI, Arial" font-size="15" fill="#242424">typed AST</text><path d="M 980 220 L 1100 225" fill="none" stroke="#605E5C" stroke-width="3" marker-end="url(#arrow)"/><rect x="948" y="192.5" width="184" height="28" rx="6" fill="#FFFFFF" opacity="0.92"/><text x="1040" y="212.5" text-anchor="middle" font-family="Segoe UI, Arial" font-size="15" fill="#242424">Shortcut REST</text><path d="M 980 410 L 1100 625" fill="none" stroke="#605E5C" stroke-width="3" marker-end="url(#arrow)"/><rect x="948" y="487.5" width="184" height="28" rx="6" fill="#FFFFFF" opacity="0.92"/><text x="1040" y="507.5" text-anchor="middle" font-family="Segoe UI, Arial" font-size="15" fill="#242424">SQL Counts</text><path d="M 980 625 L 1100 625" fill="none" stroke="#605E5C" stroke-width="3" marker-end="url(#arrow)"/><rect x="948" y="595" width="184" height="28" rx="6" fill="#FFFFFF" opacity="0.92"/><text x="1040" y="615" text-anchor="middle" font-family="Segoe UI, Arial" font-size="15" fill="#242424">SQL member set</text><path d="M 760 470 L 760 560" fill="none" stroke="#605E5C" stroke-width="3" marker-end="url(#arrow)"/><rect x="668" y="485" width="184" height="28" rx="6" fill="#FFFFFF" opacity="0.92"/><text x="760" y="505" text-anchor="middle" font-family="Segoe UI, Arial" font-size="15" fill="#242424">30-min query token</text><path d="M 540 625 L 420 610" fill="none" stroke="#605E5C" stroke-width="3" marker-end="url(#arrow)"/><rect x="388" y="587.5" width="184" height="28" rx="6" fill="#FFFFFF" opacity="0.92"/><text x="480" y="607.5" text-anchor="middle" font-family="Segoe UI, Arial" font-size="15" fill="#242424">max. 50 IDs</text><path d="M 250 550 L 250 280" fill="none" stroke="#605E5C" stroke-width="3" marker-end="url(#arrow)"/><rect x="158" y="385" width="184" height="28" rx="6" fill="#FFFFFF" opacity="0.92"/><text x="250" y="405" text-anchor="middle" font-family="Segoe UI, Arial" font-size="15" fill="#242424">visible contact fields</text><path d="M 1310 280 L 1310 560" fill="none" stroke="#605E5C" stroke-width="3" marker-end="url(#arrow)"/><rect x="1218" y="390" width="184" height="28" rx="6" fill="#FFFFFF" opacity="0.92"/><text x="1310" y="410" text-anchor="middle" font-family="Segoe UI, Arial" font-size="15" fill="#242424">Profiles + relationships</text><path d="M 1310 470 L 1310 560" fill="none" stroke="#605E5C" stroke-width="3" marker-end="url(#arrow)"/><rect x="1218" y="485" width="184" height="28" rx="6" fill="#FFFFFF" opacity="0.92"/><text x="1310" y="505" text-anchor="middle" font-family="Segoe UI, Arial" font-size="15" fill="#242424">Interactions</text><rect x="80" y="180" width="340" height="100" rx="16" fill="#CFE4FA" stroke="#0078D4" stroke-width="3"/><text x="250" y="226" text-anchor="middle" font-family="Segoe UI, Arial" font-size="20" font-weight="700" fill="#000000">segment-sankey.html</text><text x="250" y="246" text-anchor="middle" font-family="Segoe UI, Arial" font-size="17" font-weight="400" fill="#000000">Sankey, load time, click targets</text><rect x="80" y="350" width="340" height="120" rx="16" fill="#CFE4FA" stroke="#0078D4" stroke-width="3"/><text x="250" y="396" text-anchor="middle" font-family="Segoe UI, Arial" font-size="20" font-weight="700" fill="#000000">GetSegmentFilterCountsPlugin</text><text x="250" y="416" text-anchor="middle" font-family="Segoe UI, Arial" font-size="17" font-weight="400" fill="#000000">Read MQL, build AST,</text><text x="250" y="436" text-anchor="middle" font-family="Segoe UI, Arial" font-size="17" font-weight="400" fill="#000000">determine dependencies</text><rect x="80" y="550" width="340" height="120" rx="16" fill="#CFE4FA" stroke="#0078D4" stroke-width="3"/><text x="250" y="596" text-anchor="middle" font-family="Segoe UI, Arial" font-size="20" font-weight="700" fill="#000000">GetSegmentMembersPlugin</text><text x="250" y="616" text-anchor="middle" font-family="Segoe UI, Arial" font-size="17" font-weight="400" fill="#000000">Hydrate IDs as the user</text><text x="250" y="636" text-anchor="middle" font-family="Segoe UI, Arial" font-size="17" font-weight="400" fill="#000000">Field- and record-level security</text><rect x="540" y="170" width="440" height="100" rx="16" fill="#FFF4CE" stroke="#F7630C" stroke-width="3"/><text x="760" y="216" text-anchor="middle" font-family="Segoe UI, Arial" font-size="20" font-weight="700" fill="#000000">/api/fabric-dependencies</text><text x="760" y="236" text-anchor="middle" font-family="Segoe UI, Arial" font-size="17" font-weight="400" fill="#000000">missing Dataverse shortcuts, append-only</text><rect x="540" y="350" width="440" height="120" rx="16" fill="#E8DAEF" stroke="#5C2D91" stroke-width="3"/><text x="760" y="396" text-anchor="middle" font-family="Segoe UI, Arial" font-size="20" font-weight="700" fill="#000000">/api/segment-counts</text><text x="760" y="416" text-anchor="middle" font-family="Segoe UI, Arial" font-size="17" font-weight="400" fill="#000000">AST → parameterized SQL CTEs</text><text x="760" y="436" text-anchor="middle" font-family="Segoe UI, Arial" font-size="17" font-weight="400" fill="#000000">COUNT_BIG per cumulative stage</text><rect x="540" y="560" width="440" height="130" rx="16" fill="#E8DAEF" stroke="#5C2D91" stroke-width="3"/><text x="760" y="601" text-anchor="middle" font-family="Segoe UI, Arial" font-size="20" font-weight="700" fill="#000000">/api/segment-members</text><text x="760" y="621" text-anchor="middle" font-family="Segoe UI, Arial" font-size="17" font-weight="400" fill="#000000">Stage / Removed / Added</text><text x="760" y="641" text-anchor="middle" font-family="Segoe UI, Arial" font-size="17" font-weight="400" fill="#000000">Search, filter, sorting,</text><text x="760" y="661" text-anchor="middle" font-family="Segoe UI, Arial" font-size="17" font-weight="400" fill="#000000">keyset paging</text><rect x="1100" y="170" width="420" height="110" rx="16" fill="#DFF6DD" stroke="#107C10" stroke-width="3"/><text x="1310" y="211" text-anchor="middle" font-family="Segoe UI, Arial" font-size="20" font-weight="700" fill="#000000">dataverse.*</text><text x="1310" y="231" text-anchor="middle" font-family="Segoe UI, Arial" font-size="17" font-weight="400" fill="#000000">Direct/OneLake shortcuts</text><text x="1310" y="251" text-anchor="middle" font-family="Segoe UI, Arial" font-size="17" font-weight="400" fill="#000000">only required tables</text><rect x="1100" y="360" width="420" height="110" rx="16" fill="#DFF6DD" stroke="#107C10" stroke-width="3"/><text x="1310" y="401" text-anchor="middle" font-family="Segoe UI, Arial" font-size="20" font-weight="700" fill="#000000">journeys.*</text><text x="1310" y="421" text-anchor="middle" font-family="Segoe UI, Arial" font-size="17" font-weight="400" fill="#000000">exported interaction events</text><text x="1310" y="441" text-anchor="middle" font-family="Segoe UI, Arial" font-size="17" font-weight="400" fill="#000000">+ event registry</text><rect x="1100" y="560" width="420" height="130" rx="16" fill="#DFF6DD" stroke="#107C10" stroke-width="3"/><text x="1310" y="611" text-anchor="middle" font-family="Segoe UI, Arial" font-size="20" font-weight="700" fill="#000000">Fabric SQL Endpoint</text><text x="1310" y="631" text-anchor="middle" font-family="Segoe UI, Arial" font-size="17" font-weight="400" fill="#000000">INTERSECT / UNION / EXCEPT</text><text x="1310" y="651" text-anchor="middle" font-family="Segoe UI, Arial" font-size="17" font-weight="400" fill="#000000">AND / OR / NOT / time windows</text></svg>